<svg data-icon-name="notification-bell" data-style="line" icon_origin_id="20556" viewBox="0 0 24 24" xmlns="http://www.w3.org/2000/svg" id="notification-bell" class="icon line" width="48" height="48"><path style="fill: none; stroke: rgb(0, 0, 0); stroke-linecap: round; stroke-linejoin: round; stroke-width: 1;" d="M19.38,14.38a2.12,2.12,0,0,1,.62,1.5h0A2.12,2.12,0,0,1,17.88,18H6.12A2.12,2.12,0,0,1,4,15.88H4a2.12,2.12,0,0,1,.62-1.5L6,13V9a6,6,0,0,1,6-6h0a6,6,0,0,1,6,6v4ZM15,18H9a3,3,0,0,0,3,3h0A3,3,0,0,0,15,18Z" id="primary"></path></svg>