<svg data-icon-name="vest-2" data-style="line" icon_origin_id="11175" viewBox="0 0 24 24" xmlns="http://www.w3.org/2000/svg" id="vest-2" class="icon line" width="48" height="48"><path style="fill: none; stroke: rgb(0, 0, 0); stroke-linecap: round; stroke-linejoin: round; stroke-width: 1;" d="M21,10h0V20a1,1,0,0,1-1,1H14V13l1.84-9.2a1,1,0,0,1,1-.8H18a1,1,0,0,1,1,1V8A2,2,0,0,0,21,10ZM5,8V4A1,1,0,0,1,6,3H7.18a1,1,0,0,1,1,.8L10,13v8H4a1,1,0,0,1-1-1V10H3A2,2,0,0,0,5,8Z" id="primary"></path><line style="fill: none; stroke: rgb(0, 0, 0); stroke-linecap: round; stroke-linejoin: round; stroke-width: 1;" y2="19" x2="13.9" y1="19" x1="10.1" data-name="primary" id="primary-2"></line><line style="fill: none; stroke: rgb(0, 0, 0); stroke-linecap: round; stroke-linejoin: round; stroke-width: 1;" y2="4" x2="8.28" y1="4" x1="15.72" data-name="primary" id="primary-3"></line></svg>